<mxfile host="app.diagrams.net" modified="2023-09-17T13:24:34.046Z" agent="Mozilla/5.0 (Windows NT 10.0; Win64; x64; rv:109.0) Gecko/20100101 Firefox/117.0" etag="UHNoF2GxywS1xD7ngvD2" version="21.7.4" type="device">
  <diagram name="Seite-1" id="kWGn5uVW1tvWqU7menyz">
    <mxGraphModel dx="1434" dy="754" grid="1" gridSize="10" guides="1" tooltips="1" connect="1" arrows="1" fold="1" page="1" pageScale="1" pageWidth="827" pageHeight="1169" math="0" shadow="0">
      <root>
        <mxCell id="0" />
        <mxCell id="1" parent="0" />
        <mxCell id="WCTcpnpnylgwayp8WufJ-22" value="&lt;font style=&quot;font-size: 20px;&quot;&gt;Steppe&lt;/font&gt;" style="rounded=0;whiteSpace=wrap;html=1;fillColor=#f5f5f5;fontColor=#333333;strokeColor=none;" vertex="1" parent="1">
          <mxGeometry x="319" y="320" width="120" height="120" as="geometry" />
        </mxCell>
        <mxCell id="WCTcpnpnylgwayp8WufJ-23" value="&lt;div style=&quot;font-size: 20px;&quot;&gt;&lt;font style=&quot;font-size: 20px;&quot;&gt;Subtropische&lt;/font&gt;&lt;/div&gt;&lt;div style=&quot;font-size: 20px;&quot;&gt;&lt;font style=&quot;font-size: 20px;&quot;&gt;Wüste&lt;/font&gt;&lt;br&gt;&lt;/div&gt;" style="rounded=0;whiteSpace=wrap;html=1;fillColor=#f5f5f5;fontColor=#333333;strokeColor=none;" vertex="1" parent="1">
          <mxGeometry x="440" y="320" width="120" height="120" as="geometry" />
        </mxCell>
        <mxCell id="WCTcpnpnylgwayp8WufJ-32" value="&lt;font style=&quot;font-size: 20px;&quot;&gt;Schnee-&lt;br&gt;wüste&lt;/font&gt;" style="rounded=0;whiteSpace=wrap;html=1;fillColor=#f5f5f5;fontColor=#333333;strokeColor=none;" vertex="1" parent="1">
          <mxGeometry x="199.5" y="80" width="120" height="120" as="geometry" />
        </mxCell>
        <mxCell id="WCTcpnpnylgwayp8WufJ-33" value="&lt;font style=&quot;font-size: 20px;&quot;&gt;Sumpf&lt;/font&gt;" style="rounded=0;whiteSpace=wrap;html=1;fillColor=#f5f5f5;fontColor=#333333;strokeColor=none;" vertex="1" parent="1">
          <mxGeometry x="320.5" y="80" width="120" height="120" as="geometry" />
        </mxCell>
        <mxCell id="WCTcpnpnylgwayp8WufJ-34" value="&lt;font style=&quot;font-size: 20px;&quot;&gt;Tropischer Regenwald&lt;/font&gt;" style="rounded=0;whiteSpace=wrap;html=1;fillColor=#f5f5f5;fontColor=#333333;strokeColor=none;" vertex="1" parent="1">
          <mxGeometry x="439" y="80" width="120" height="120" as="geometry" />
        </mxCell>
        <mxCell id="WCTcpnpnylgwayp8WufJ-36" value="&lt;font style=&quot;font-size: 20px;&quot;&gt;Gemäßigter&lt;br&gt;Laubwald&lt;br&gt;&lt;/font&gt;" style="rounded=0;whiteSpace=wrap;html=1;fillColor=#f5f5f5;fontColor=#333333;strokeColor=none;" vertex="1" parent="1">
          <mxGeometry x="319" y="200" width="120" height="120" as="geometry" />
        </mxCell>
        <mxCell id="WCTcpnpnylgwayp8WufJ-37" value="&lt;font style=&quot;font-size: 20px;&quot;&gt;Borealer&lt;br&gt;Nadelwald&lt;/font&gt;" style="rounded=0;whiteSpace=wrap;html=1;fillColor=#f5f5f5;fontColor=#333333;strokeColor=none;" vertex="1" parent="1">
          <mxGeometry x="199.5" y="200" width="120" height="120" as="geometry" />
        </mxCell>
        <mxCell id="WCTcpnpnylgwayp8WufJ-21" value="" style="rounded=0;whiteSpace=wrap;html=1;fillColor=#f5f5f5;fontColor=#333333;strokeColor=none;" vertex="1" parent="1">
          <mxGeometry x="199" y="320" width="120" height="120" as="geometry" />
        </mxCell>
        <mxCell id="WCTcpnpnylgwayp8WufJ-26" value="&lt;font style=&quot;font-size: 20px;&quot;&gt;Savanne&lt;/font&gt;" style="rounded=0;whiteSpace=wrap;html=1;fillColor=#f5f5f5;fontColor=#333333;strokeColor=none;" vertex="1" parent="1">
          <mxGeometry x="439" y="200" width="120" height="120" as="geometry" />
        </mxCell>
        <mxCell id="WCTcpnpnylgwayp8WufJ-38" value="&lt;font style=&quot;font-size: 20px;&quot;&gt;Tundra&lt;/font&gt;" style="rounded=0;whiteSpace=wrap;html=1;fillColor=#f5f5f5;fontColor=#333333;strokeColor=none;" vertex="1" parent="1">
          <mxGeometry x="199.5" y="320" width="120" height="120" as="geometry" />
        </mxCell>
        <mxCell id="WCTcpnpnylgwayp8WufJ-1" value="" style="endArrow=classic;html=1;rounded=0;strokeWidth=3;" edge="1" parent="1">
          <mxGeometry width="50" height="50" relative="1" as="geometry">
            <mxPoint x="200" y="440" as="sourcePoint" />
            <mxPoint x="200" y="40" as="targetPoint" />
          </mxGeometry>
        </mxCell>
        <mxCell id="WCTcpnpnylgwayp8WufJ-2" value="" style="endArrow=classic;html=1;rounded=0;strokeWidth=3;" edge="1" parent="1">
          <mxGeometry width="50" height="50" relative="1" as="geometry">
            <mxPoint x="200" y="440" as="sourcePoint" />
            <mxPoint x="600" y="440" as="targetPoint" />
          </mxGeometry>
        </mxCell>
        <mxCell id="WCTcpnpnylgwayp8WufJ-3" value="&lt;span style=&quot;font-size: 25px;&quot;&gt;&lt;font style=&quot;font-size: 25px;&quot;&gt;Niederschlagsintensität&lt;/font&gt;&lt;/span&gt;" style="text;html=1;align=center;verticalAlign=middle;resizable=0;points=[];autosize=1;strokeColor=none;fillColor=none;rotation=-90;fontSize=25;fontStyle=0" vertex="1" parent="1">
          <mxGeometry y="220" width="280" height="40" as="geometry" />
        </mxCell>
        <mxCell id="WCTcpnpnylgwayp8WufJ-4" value="&lt;font style=&quot;font-size: 25px;&quot;&gt;&lt;span style=&quot;font-size: 25px;&quot;&gt;Temperaturintensität&lt;/span&gt;&lt;/font&gt;" style="text;html=1;align=center;verticalAlign=middle;resizable=0;points=[];autosize=1;strokeColor=none;fillColor=none;rotation=0;fontSize=25;fontStyle=0" vertex="1" parent="1">
          <mxGeometry x="254" y="480" width="250" height="40" as="geometry" />
        </mxCell>
        <mxCell id="WCTcpnpnylgwayp8WufJ-5" value="" style="endArrow=none;dashed=1;html=1;dashPattern=1 3;strokeWidth=2;rounded=0;" edge="1" parent="1">
          <mxGeometry width="50" height="50" relative="1" as="geometry">
            <mxPoint x="200" y="320" as="sourcePoint" />
            <mxPoint x="560" y="320" as="targetPoint" />
          </mxGeometry>
        </mxCell>
        <mxCell id="WCTcpnpnylgwayp8WufJ-6" value="" style="endArrow=none;dashed=1;html=1;dashPattern=1 3;strokeWidth=2;rounded=0;" edge="1" parent="1">
          <mxGeometry width="50" height="50" relative="1" as="geometry">
            <mxPoint x="200" y="200" as="sourcePoint" />
            <mxPoint x="560" y="200" as="targetPoint" />
          </mxGeometry>
        </mxCell>
        <mxCell id="WCTcpnpnylgwayp8WufJ-7" value="" style="endArrow=none;dashed=1;html=1;dashPattern=1 3;strokeWidth=2;rounded=0;" edge="1" parent="1">
          <mxGeometry width="50" height="50" relative="1" as="geometry">
            <mxPoint x="320" y="440" as="sourcePoint" />
            <mxPoint x="320" y="80" as="targetPoint" />
          </mxGeometry>
        </mxCell>
        <mxCell id="WCTcpnpnylgwayp8WufJ-8" value="" style="endArrow=none;dashed=1;html=1;dashPattern=1 3;strokeWidth=2;rounded=0;" edge="1" parent="1">
          <mxGeometry width="50" height="50" relative="1" as="geometry">
            <mxPoint x="440" y="440" as="sourcePoint" />
            <mxPoint x="440" y="80" as="targetPoint" />
          </mxGeometry>
        </mxCell>
        <mxCell id="WCTcpnpnylgwayp8WufJ-9" value="" style="endArrow=none;html=1;rounded=0;fontSize=12;strokeWidth=2;" edge="1" parent="1">
          <mxGeometry width="50" height="50" relative="1" as="geometry">
            <mxPoint x="260" y="450" as="sourcePoint" />
            <mxPoint x="260" y="440" as="targetPoint" />
          </mxGeometry>
        </mxCell>
        <mxCell id="WCTcpnpnylgwayp8WufJ-10" value="" style="endArrow=none;html=1;rounded=0;fontSize=12;strokeWidth=2;" edge="1" parent="1">
          <mxGeometry width="50" height="50" relative="1" as="geometry">
            <mxPoint x="380" y="450" as="sourcePoint" />
            <mxPoint x="380" y="440" as="targetPoint" />
          </mxGeometry>
        </mxCell>
        <mxCell id="WCTcpnpnylgwayp8WufJ-11" value="" style="endArrow=none;html=1;rounded=0;fontSize=12;strokeWidth=2;" edge="1" parent="1">
          <mxGeometry width="50" height="50" relative="1" as="geometry">
            <mxPoint x="500" y="440" as="sourcePoint" />
            <mxPoint x="500" y="450" as="targetPoint" />
          </mxGeometry>
        </mxCell>
        <mxCell id="WCTcpnpnylgwayp8WufJ-12" value="" style="endArrow=none;html=1;rounded=0;fontSize=12;strokeWidth=2;" edge="1" parent="1">
          <mxGeometry width="50" height="50" relative="1" as="geometry">
            <mxPoint x="190" y="380" as="sourcePoint" />
            <mxPoint x="200" y="380" as="targetPoint" />
          </mxGeometry>
        </mxCell>
        <mxCell id="WCTcpnpnylgwayp8WufJ-13" value="" style="endArrow=none;html=1;rounded=0;fontSize=12;strokeWidth=2;" edge="1" parent="1">
          <mxGeometry width="50" height="50" relative="1" as="geometry">
            <mxPoint x="190" y="260" as="sourcePoint" />
            <mxPoint x="200" y="260" as="targetPoint" />
          </mxGeometry>
        </mxCell>
        <mxCell id="WCTcpnpnylgwayp8WufJ-14" value="" style="endArrow=none;html=1;rounded=0;fontSize=12;strokeWidth=2;" edge="1" parent="1">
          <mxGeometry width="50" height="50" relative="1" as="geometry">
            <mxPoint x="190" y="140" as="sourcePoint" />
            <mxPoint x="200" y="140" as="targetPoint" />
          </mxGeometry>
        </mxCell>
        <mxCell id="WCTcpnpnylgwayp8WufJ-15" value="&lt;span&gt;&lt;font style=&quot;font-size: 20px;&quot;&gt;0&lt;/font&gt;&lt;/span&gt;" style="text;html=1;align=center;verticalAlign=middle;resizable=0;points=[];autosize=1;strokeColor=none;fillColor=none;fontStyle=0" vertex="1" parent="1">
          <mxGeometry x="244" y="444" width="30" height="40" as="geometry" />
        </mxCell>
        <mxCell id="WCTcpnpnylgwayp8WufJ-16" value="&lt;font style=&quot;font-size: 20px;&quot;&gt;1&lt;/font&gt;" style="text;html=1;align=center;verticalAlign=middle;resizable=0;points=[];autosize=1;strokeColor=none;fillColor=none;fontStyle=0" vertex="1" parent="1">
          <mxGeometry x="364" y="444" width="30" height="40" as="geometry" />
        </mxCell>
        <mxCell id="WCTcpnpnylgwayp8WufJ-17" value="&lt;font style=&quot;font-size: 20px;&quot;&gt;2&lt;/font&gt;" style="text;html=1;align=center;verticalAlign=middle;resizable=0;points=[];autosize=1;strokeColor=none;fillColor=none;fontStyle=0" vertex="1" parent="1">
          <mxGeometry x="485" y="442" width="30" height="40" as="geometry" />
        </mxCell>
        <mxCell id="WCTcpnpnylgwayp8WufJ-18" value="&lt;span&gt;&lt;font style=&quot;font-size: 20px;&quot;&gt;0&lt;/font&gt;&lt;/span&gt;" style="text;html=1;align=center;verticalAlign=middle;resizable=0;points=[];autosize=1;strokeColor=none;fillColor=none;fontStyle=0" vertex="1" parent="1">
          <mxGeometry x="160" y="360" width="30" height="40" as="geometry" />
        </mxCell>
        <mxCell id="WCTcpnpnylgwayp8WufJ-19" value="&lt;span&gt;&lt;font style=&quot;font-size: 20px;&quot;&gt;1&lt;/font&gt;&lt;/span&gt;" style="text;html=1;align=center;verticalAlign=middle;resizable=0;points=[];autosize=1;strokeColor=none;fillColor=none;fontStyle=0" vertex="1" parent="1">
          <mxGeometry x="160" y="240" width="30" height="40" as="geometry" />
        </mxCell>
        <mxCell id="WCTcpnpnylgwayp8WufJ-20" value="&lt;span&gt;&lt;font style=&quot;font-size: 20px;&quot;&gt;2&lt;/font&gt;&lt;/span&gt;" style="text;html=1;align=center;verticalAlign=middle;resizable=0;points=[];autosize=1;strokeColor=none;fillColor=none;fontStyle=0" vertex="1" parent="1">
          <mxGeometry x="160" y="120" width="30" height="40" as="geometry" />
        </mxCell>
      </root>
    </mxGraphModel>
  </diagram>
</mxfile>
